<mxfile host="app.diagrams.net" agent="Mozilla/5.0 (Windows NT 10.0; Win64; x64) AppleWebKit/537.36 (KHTML, like Gecko) Chrome/132.0.0.0 Safari/537.36" version="26.0.10">
  <diagram name="페이지-1" id="dm3RD0aNbg_HgHfVLx_N">
    <mxGraphModel dx="1518" dy="655" grid="1" gridSize="10" guides="1" tooltips="1" connect="1" arrows="1" fold="1" page="1" pageScale="1" pageWidth="827" pageHeight="1169" math="0" shadow="0">
      <root>
        <mxCell id="0" />
        <mxCell id="1" parent="0" />
        <mxCell id="pQDFSpA3OtjcjJHHEt3n-18" value="" style="rounded=1;whiteSpace=wrap;html=1;" parent="1" vertex="1">
          <mxGeometry x="770" y="290.25" width="280" height="269.5" as="geometry" />
        </mxCell>
        <mxCell id="pQDFSpA3OtjcjJHHEt3n-17" value="" style="rounded=1;whiteSpace=wrap;html=1;" parent="1" vertex="1">
          <mxGeometry x="720" y="660" width="270" height="290" as="geometry" />
        </mxCell>
        <mxCell id="pQDFSpA3OtjcjJHHEt3n-16" value="" style="rounded=1;whiteSpace=wrap;html=1;" parent="1" vertex="1">
          <mxGeometry x="10" y="660" width="270" height="285" as="geometry" />
        </mxCell>
        <mxCell id="pQDFSpA3OtjcjJHHEt3n-15" value="" style="rounded=1;whiteSpace=wrap;html=1;" parent="1" vertex="1">
          <mxGeometry x="365" y="280" width="270" height="290" as="geometry" />
        </mxCell>
        <mxCell id="pQDFSpA3OtjcjJHHEt3n-2" value="&lt;font style=&quot;font-size: 24px;&quot;&gt;고객&lt;/font&gt;" style="rounded=1;whiteSpace=wrap;html=1;" parent="1" vertex="1">
          <mxGeometry x="85" y="700" width="120" height="60" as="geometry" />
        </mxCell>
        <mxCell id="pQDFSpA3OtjcjJHHEt3n-3" value="&lt;font style=&quot;font-size: 24px;&quot;&gt;식당주인&lt;/font&gt;" style="rounded=1;whiteSpace=wrap;html=1;" parent="1" vertex="1">
          <mxGeometry x="440" y="290.25" width="120" height="60" as="geometry" />
        </mxCell>
        <mxCell id="pQDFSpA3OtjcjJHHEt3n-4" value="&lt;font style=&quot;font-size: 24px;&quot;&gt;로봇&lt;/font&gt;" style="rounded=1;whiteSpace=wrap;html=1;" parent="1" vertex="1">
          <mxGeometry x="795" y="690" width="120" height="60" as="geometry" />
        </mxCell>
        <mxCell id="pQDFSpA3OtjcjJHHEt3n-5" value="&lt;font style=&quot;font-size: 24px;&quot;&gt;테이블 오더를 통한&amp;nbsp;&lt;/font&gt;&lt;div&gt;&lt;font style=&quot;font-size: 24px;&quot;&gt;주문 서비스&lt;/font&gt;&lt;/div&gt;" style="rounded=1;whiteSpace=wrap;html=1;" parent="1" vertex="1">
          <mxGeometry x="25" y="760" width="240" height="60" as="geometry" />
        </mxCell>
        <mxCell id="pQDFSpA3OtjcjJHHEt3n-6" value="&lt;font style=&quot;font-size: 24px;&quot;&gt;주방 디스플레이를 통한 주문 접수 서비스&lt;/font&gt;" style="rounded=1;whiteSpace=wrap;html=1;" parent="1" vertex="1">
          <mxGeometry x="380" y="350.25" width="240" height="60" as="geometry" />
        </mxCell>
        <mxCell id="pQDFSpA3OtjcjJHHEt3n-7" value="&lt;font style=&quot;font-size: 24px;&quot;&gt;주방 디스플레이를 통한 서빙 로봇 제어 서비스&lt;/font&gt;" style="rounded=1;whiteSpace=wrap;html=1;" parent="1" vertex="1">
          <mxGeometry x="380" y="410" width="240" height="90" as="geometry" />
        </mxCell>
        <mxCell id="pQDFSpA3OtjcjJHHEt3n-9" value="&lt;font style=&quot;font-size: 24px;&quot;&gt;서빙 로봇 도착시&amp;nbsp;&lt;/font&gt;&lt;div&gt;&lt;font style=&quot;font-size: 24px;&quot;&gt;도착음 서비스&lt;/font&gt;&lt;/div&gt;" style="rounded=1;whiteSpace=wrap;html=1;fillColor=#FFFF33;" parent="1" vertex="1">
          <mxGeometry x="25" y="820" width="240" height="60" as="geometry" />
        </mxCell>
        <mxCell id="pQDFSpA3OtjcjJHHEt3n-10" value="&lt;font style=&quot;font-size: 24px;&quot;&gt;데이터 베이스의 데이터를 이용한 통계 서비스&lt;/font&gt;" style="rounded=1;whiteSpace=wrap;html=1;" parent="1" vertex="1">
          <mxGeometry x="785" y="450.25" width="245" height="89.75" as="geometry" />
        </mxCell>
        <mxCell id="pQDFSpA3OtjcjJHHEt3n-11" value="&lt;font style=&quot;font-size: 24px;&quot;&gt;서빙 로봇 제어판&amp;nbsp;&lt;/font&gt;&lt;div&gt;&lt;font style=&quot;font-size: 24px;&quot;&gt;서비스&lt;/font&gt;&lt;/div&gt;" style="rounded=1;whiteSpace=wrap;html=1;fillColor=#FFFF33;" parent="1" vertex="1">
          <mxGeometry x="380" y="499.75" width="240" height="60" as="geometry" />
        </mxCell>
        <mxCell id="pQDFSpA3OtjcjJHHEt3n-12" value="&lt;font style=&quot;font-size: 24px;&quot;&gt;주문 내역을 데이터&amp;nbsp;&lt;/font&gt;&lt;div&gt;&lt;font style=&quot;font-size: 24px;&quot;&gt;베이스에 저장 서비스&lt;/font&gt;&lt;/div&gt;" style="rounded=1;whiteSpace=wrap;html=1;" parent="1" vertex="1">
          <mxGeometry x="785" y="390.25" width="245" height="60" as="geometry" />
        </mxCell>
        <mxCell id="pQDFSpA3OtjcjJHHEt3n-13" value="&lt;font style=&quot;font-size: 24px;&quot;&gt;서빙 로봇 작동 서비스&lt;/font&gt;" style="rounded=1;whiteSpace=wrap;html=1;" parent="1" vertex="1">
          <mxGeometry x="735" y="750" width="240" height="60" as="geometry" />
        </mxCell>
        <mxCell id="pQDFSpA3OtjcjJHHEt3n-14" value="&lt;font style=&quot;font-size: 24px;&quot;&gt;MySQL&lt;/font&gt;" style="rounded=1;whiteSpace=wrap;html=1;" parent="1" vertex="1">
          <mxGeometry x="845" y="330.25" width="120" height="60" as="geometry" />
        </mxCell>
        <mxCell id="pQDFSpA3OtjcjJHHEt3n-19" value="" style="endArrow=classic;startArrow=classic;html=1;rounded=0;entryX=0;entryY=0.5;entryDx=0;entryDy=0;" parent="1" source="pQDFSpA3OtjcjJHHEt3n-15" target="pQDFSpA3OtjcjJHHEt3n-18" edge="1">
          <mxGeometry width="50" height="50" relative="1" as="geometry">
            <mxPoint x="460" y="250" as="sourcePoint" />
            <mxPoint x="510" y="200" as="targetPoint" />
          </mxGeometry>
        </mxCell>
        <mxCell id="pQDFSpA3OtjcjJHHEt3n-20" value="" style="endArrow=classic;startArrow=classic;html=1;rounded=0;exitX=1;exitY=0;exitDx=0;exitDy=0;" parent="1" source="pQDFSpA3OtjcjJHHEt3n-16" edge="1">
          <mxGeometry width="50" height="50" relative="1" as="geometry">
            <mxPoint x="320" y="620" as="sourcePoint" />
            <mxPoint x="380" y="570" as="targetPoint" />
          </mxGeometry>
        </mxCell>
        <mxCell id="pQDFSpA3OtjcjJHHEt3n-21" value="" style="endArrow=classic;startArrow=classic;html=1;rounded=0;entryX=1;entryY=1;entryDx=0;entryDy=0;exitX=0;exitY=0;exitDx=0;exitDy=0;" parent="1" source="pQDFSpA3OtjcjJHHEt3n-17" target="pQDFSpA3OtjcjJHHEt3n-15" edge="1">
          <mxGeometry width="50" height="50" relative="1" as="geometry">
            <mxPoint x="400" y="700" as="sourcePoint" />
            <mxPoint x="450" y="650" as="targetPoint" />
          </mxGeometry>
        </mxCell>
        <mxCell id="pQDFSpA3OtjcjJHHEt3n-22" value="&lt;font style=&quot;font-size: 24px;&quot;&gt;데이터 저장&lt;/font&gt;&lt;div&gt;&lt;br&gt;&lt;/div&gt;" style="text;html=1;align=center;verticalAlign=middle;resizable=0;points=[];autosize=1;strokeColor=none;fillColor=none;" parent="1" vertex="1">
          <mxGeometry x="630" y="373" width="140" height="60" as="geometry" />
        </mxCell>
        <mxCell id="pQDFSpA3OtjcjJHHEt3n-23" value="&lt;font style=&quot;font-size: 24px;&quot;&gt;주문&lt;/font&gt;" style="text;html=1;align=center;verticalAlign=middle;resizable=0;points=[];autosize=1;strokeColor=none;fillColor=none;" parent="1" vertex="1">
          <mxGeometry x="215" y="520" width="70" height="40" as="geometry" />
        </mxCell>
        <mxCell id="pQDFSpA3OtjcjJHHEt3n-24" value="&lt;font style=&quot;font-size: 24px;&quot;&gt;action,&lt;/font&gt;" style="text;html=1;align=center;verticalAlign=middle;resizable=0;points=[];autosize=1;strokeColor=none;fillColor=none;" parent="1" vertex="1">
          <mxGeometry x="590" y="630" width="90" height="40" as="geometry" />
        </mxCell>
        <mxCell id="pQDFSpA3OtjcjJHHEt3n-25" value="&lt;font style=&quot;font-size: 24px;&quot;&gt;PyQT&lt;/font&gt;" style="rounded=1;whiteSpace=wrap;html=1;" parent="1" vertex="1">
          <mxGeometry x="560" y="290.25" width="60" height="60" as="geometry" />
        </mxCell>
        <mxCell id="pQDFSpA3OtjcjJHHEt3n-26" value="&lt;font style=&quot;font-size: 24px;&quot;&gt;PyQT&lt;/font&gt;" style="rounded=1;whiteSpace=wrap;html=1;" parent="1" vertex="1">
          <mxGeometry x="205" y="700" width="60" height="60" as="geometry" />
        </mxCell>
        <mxCell id="pQDFSpA3OtjcjJHHEt3n-27" value="&lt;font style=&quot;font-size: 24px;&quot;&gt;&lt;br&gt;로봇 상태 체크,서빙 명령&lt;/font&gt;" style="text;html=1;align=center;verticalAlign=middle;resizable=0;points=[];autosize=1;strokeColor=none;fillColor=none;" parent="1" vertex="1">
          <mxGeometry x="705" y="580" width="270" height="70" as="geometry" />
        </mxCell>
        <mxCell id="pQDFSpA3OtjcjJHHEt3n-28" value="&lt;b&gt;&lt;font style=&quot;font-size: 24px;&quot;&gt;action - 인터페이스&lt;br&gt;service - 인터페이스&lt;/font&gt;&lt;/b&gt;" style="text;html=1;align=center;verticalAlign=middle;resizable=0;points=[];autosize=1;strokeColor=none;fillColor=#66FF66;" parent="1" vertex="1">
          <mxGeometry x="320" y="620" width="240" height="70" as="geometry" />
        </mxCell>
        <mxCell id="pQDFSpA3OtjcjJHHEt3n-29" value="&lt;font style=&quot;font-size: 24px;&quot;&gt;topic&lt;/font&gt;" style="text;html=1;align=center;verticalAlign=middle;resizable=0;points=[];autosize=1;strokeColor=none;fillColor=none;" parent="1" vertex="1">
          <mxGeometry x="390" y="690" width="70" height="40" as="geometry" />
        </mxCell>
        <mxCell id="pQDFSpA3OtjcjJHHEt3n-30" value="&lt;b&gt;&lt;font style=&quot;font-size: 24px;&quot;&gt;topic-QoS&lt;/font&gt;&lt;/b&gt;" style="text;html=1;align=center;verticalAlign=middle;resizable=0;points=[];autosize=1;strokeColor=none;fillColor=#33FF33;" parent="1" vertex="1">
          <mxGeometry x="565" y="665" width="140" height="40" as="geometry" />
        </mxCell>
        <mxCell id="pQDFSpA3OtjcjJHHEt3n-31" value="&lt;font style=&quot;font-size: 24px;&quot;&gt;서빙 로봇 송수신&amp;nbsp;&lt;/font&gt;&lt;div&gt;&lt;font style=&quot;font-size: 24px;&quot;&gt;로깅 시스템&lt;/font&gt;&lt;/div&gt;" style="rounded=1;whiteSpace=wrap;html=1;fillColor=#FFFF33;" parent="1" vertex="1">
          <mxGeometry x="735" y="810" width="240" height="60" as="geometry" />
        </mxCell>
        <mxCell id="pQDFSpA3OtjcjJHHEt3n-32" value="&lt;font style=&quot;font-size: 24px;&quot;&gt;로봇 도착&amp;nbsp;&lt;/font&gt;&lt;div&gt;&lt;font style=&quot;font-size: 24px;&quot;&gt;알림 서비스&lt;/font&gt;&lt;/div&gt;" style="text;html=1;align=center;verticalAlign=middle;resizable=0;points=[];autosize=1;strokeColor=none;fillColor=#66FF66;" parent="1" vertex="1">
          <mxGeometry x="180" y="555" width="140" height="70" as="geometry" />
        </mxCell>
        <mxCell id="pQDFSpA3OtjcjJHHEt3n-33" value="&lt;span style=&quot;font-size: 24px;&quot;&gt;로봇 제어 명령&lt;/span&gt;" style="text;html=1;align=center;verticalAlign=middle;resizable=0;points=[];autosize=1;strokeColor=none;fillColor=#66FF66;" parent="1" vertex="1">
          <mxGeometry x="705" y="570" width="170" height="40" as="geometry" />
        </mxCell>
        <mxCell id="pQDFSpA3OtjcjJHHEt3n-35" value="&lt;font style=&quot;font-size: 24px;&quot;&gt;데이터 조회&lt;/font&gt;" style="text;html=1;align=center;verticalAlign=middle;resizable=0;points=[];autosize=1;strokeColor=none;fillColor=none;" parent="1" vertex="1">
          <mxGeometry x="630" y="433" width="140" height="40" as="geometry" />
        </mxCell>
      </root>
    </mxGraphModel>
  </diagram>
</mxfile>
